Coordinates
version=1
nRows=20
nColumns=33
inDegrees=yes

Units are S.I. units (second, meters, Newtons, ...)
Angles are in degrees.

endheader
time	ground_thorax_rot_x	ground_thorax_rot_y	ground_thorax_rot_z	ground_thorax_tx	ground_thorax_ty	ground_thorax_tz	clav_prot_r	clav_elev_r	scapula_abduction_r	scapula_elevation_r	scapula_upward_rot_r	scapula_winging_r	shoulder_elv_r	plane_of_elev_r	axial_rot_r	elbow_flexion_r	pro_sup_r	wrist_flex_r	wrist_dev_r	clav_prot_l	clav_elev_l	scapula_abduction_l	scapula_elevation_l	scapula_upward_rot_l	scapula_winging_l	shoulder_elv_l	plane_of_elev_l	axial_rot_l	elbow_flexion_l	pro_sup_l	wrist_flex_l	wrist_dev_l	
2.9000	31.239368	26.573559	36.679305	-88.979056	851.264555	-49.861765	12.741459	33.792062	26.808160	45.000000	-45.000000	990.688073	2772.302456	156.981063	9.255991	1798.013098	524.930708	17.929896	12.973976	-6.517188	-45.000000	-39.185668	45.000000	-45.000000	5506.448010	-5682.055690	26.206637	30.018038	1070.203514	45.865620	11.735600	-24.101159	
2.9100	31.228610	26.606480	36.820330	-88.330246	850.834189	-49.779227	12.742141	33.810476	26.887535	45.000000	-45.000000	990.699462	2772.274792	156.943258	9.042840	1798.097909	525.466883	18.014228	12.932859	-6.513769	-45.000000	-39.197951	45.000000	-45.000000	5506.373721	-5682.039453	26.199827	30.118661	1070.225320	46.004338	11.714002	-24.080691	
2.9200	31.219479	26.642485	36.958991	-87.655464	850.422079	-49.701707	12.738454	33.821938	26.960546	45.000000	-45.000000	990.690687	2772.244304	156.881469	8.818148	1798.181085	525.970231	18.093824	12.910341	-6.496844	-45.000000	-39.200502	45.000000	-45.000000	5506.276742	-5682.013252	26.185633	30.225070	1070.244529	46.119172	11.689080	-24.050805	
2.9300	31.212748	26.668582	37.093762	-86.929088	850.049877	-49.631787	12.748379	33.836820	27.044545	45.000000	-45.000000	990.697857	2772.225953	156.836527	8.621762	1798.251050	526.395323	18.161573	12.888287	-6.496333	-45.000000	-39.210236	45.000000	-45.000000	5506.190869	-5681.999135	26.190171	30.368278	1070.255096	46.171090	11.690820	-24.023467	
2.9400	31.207346	26.686601	37.223932	-86.142707	849.719502	-49.572500	12.764309	33.859478	27.135560	45.000000	-45.000000	990.716118	2772.215669	156.801166	8.433198	1798.306526	526.743345	18.219662	12.872470	-6.504494	-45.000000	-39.222733	45.000000	-45.000000	5506.108742	-5681.991731	26.212078	30.546813	1070.260342	46.167360	11.718164	-23.990969	
2.9500	31.200353	26.700369	37.355280	-85.284823	849.435389	-49.526259	12.787253	33.874636	27.233169	45.000000	-45.000000	990.731791	2772.207424	156.761295	8.248625	1798.353796	527.009975	18.264449	12.871053	-6.517956	-45.000000	-39.230423	45.000000	-45.000000	5506.016072	-5681.979821	26.240542	30.761929	1070.257476	46.105075	11.759771	-23.952376	
2.9600	31.192991	26.705586	37.482900	-84.349342	849.196289	-49.494258	12.812416	33.904003	27.338817	45.000000	-45.000000	990.761481	2772.203992	156.732635	8.059076	1798.385931	527.200845	18.301114	12.876492	-6.540131	-45.000000	-39.236527	45.000000	-45.000000	5505.925058	-5681.971424	26.288153	31.016814	1070.252003	45.996791	11.828725	-23.904695	
2.9700	31.179543	26.712090	37.617337	-83.333473	848.998202	-49.476130	12.840535	33.917281	27.446661	45.000000	-45.000000	990.780129	2772.195282	156.689189	7.859647	1798.415343	527.327535	18.325329	12.900355	-6.563822	-45.000000	-39.232523	45.000000	-45.000000	5505.813697	-5681.949526	26.334457	31.305511	1070.239678	45.850160	11.900499	-23.850617	
2.9800	31.165417	26.711519	37.748206	-82.235877	848.836857	-49.470043	12.866507	33.953268	27.560416	45.000000	-45.000000	990.817937	2772.191159	156.661231	7.652377	1798.430652	527.396571	18.345140	12.927239	-6.594279	-45.000000	-39.227345	45.000000	-45.000000	5505.705811	-5681.933475	26.400356	31.631701	1070.228118	45.679573	11.998864	-23.789268	
2.9900	31.147293	26.715836	37.884879	-81.056500	848.707728	-49.473450	12.891080	33.974572	27.668943	45.000000	-45.000000	990.846110	2772.185290	156.617555	7.439235	1798.443213	527.415602	18.353913	12.969921	-6.625262	-45.000000	-39.217635	45.000000	-45.000000	5505.580392	-5681.911678	26.464505	31.991976	1070.209150	45.485591	12.096764	-23.733711	
3.0000	31.124848	26.722231	38.023033	-79.796249	848.606054	-49.483807	12.910433	34.005840	27.769871	45.000000	-45.000000	990.890531	2772.187419	156.583686	7.220176	1798.443202	527.388900	18.357244	13.017145	-6.657912	-45.000000	-39.214002	45.000000	-45.000000	5505.454726	-5681.896838	26.541654	32.384289	1070.191577	45.282844	12.215230	-23.672115	
3.0100	31.090562	26.741952	38.177415	-78.456950	848.526804	-49.499016	12.926566	34.009385	27.858864	45.000000	-45.000000	990.923636	2772.187712	156.533222	6.997536	1798.445273	527.323163	18.347125	13.079165	-6.686363	-45.000000	-39.214098	45.000000	-45.000000	5505.313699	-5681.874980	26.613376	32.806681	1070.167965	45.070349	12.327701	-23.608610	
3.0200	31.045948	26.766253	38.341307	-77.040966	848.464647	-49.517497	12.937118	34.018557	27.944548	45.000000	-45.000000	990.972414	2772.192578	156.496675	6.773516	1798.440831	527.222823	18.330260	13.143998	-6.712357	-45.000000	-39.222524	45.000000	-45.000000	5505.172770	-5681.853981	26.693603	33.255713	1070.148284	44.859762	12.457119	-23.527986	
3.0300	30.989653	26.798800	38.521683	-75.551182	848.413932	-49.537982	12.945440	34.010429	28.028839	45.000000	-45.000000	991.013869	2772.192525	156.451967	6.553216	1798.441328	527.094903	18.300530	13.218635	-6.733049	-45.000000	-39.235614	45.000000	-45.000000	5505.025742	-5681.827455	26.772752	33.734137	1070.126259	44.646612	12.582649	-23.440106	
3.0400	30.922301	26.830714	38.712211	-73.990406	848.368761	-49.559193	12.952639	34.006282	28.118767	45.000000	-45.000000	991.068237	2772.191897	156.420970	6.339394	1798.439260	526.944568	18.263044	13.295513	-6.752233	-45.000000	-39.253080	45.000000	-45.000000	5504.878092	-5681.795044	26.857107	34.234465	1070.109727	44.440413	12.720927	-23.332164	
3.0500	30.848362	26.860640	38.912199	-72.361681	848.323094	-49.579557	12.961085	34.000806	28.218914	45.000000	-45.000000	991.119796	2772.183579	156.387941	6.138203	1798.442539	526.777767	18.214418	13.377707	-6.766047	-45.000000	-39.272768	45.000000	-45.000000	5504.735081	-5681.762377	26.948464	34.763873	1070.096005	44.237368	12.858674	-23.215281	
3.0600	30.775465	26.877567	39.107845	-70.667512	848.270873	-49.597070	12.967194	34.010367	28.336939	45.000000	-45.000000	991.181021	2772.170486	156.365997	5.950138	1798.443364	526.597144	18.159086	13.461493	-6.779714	-45.000000	-39.295426	45.000000	-45.000000	5504.597711	-5681.733937	27.047508	35.317518	1070.091715	44.043037	13.005751	-23.099276	
3.0700	30.705798	26.886483	39.300887	-68.910760	848.206174	-49.609332	12.970683	34.026219	28.466304	45.000000	-45.000000	991.242086	2772.153076	156.342871	5.777269	1798.444250	526.405712	18.094788	13.550397	-6.788506	-45.000000	-39.323436	45.000000	-45.000000	5504.468051	-5681.718350	27.152926	35.897044	1070.095889	43.861806	13.150468	-22.993661	
3.0800	30.633255	26.891091	39.494671	-67.093531	848.123294	-49.613714	12.973507	34.039006	28.598879	45.000000	-45.000000	991.307362	2772.134838	156.321983	5.616399	1798.440457	526.205423	18.022403	13.645446	-6.798650	-45.000000	-39.354599	45.000000	-45.000000	5504.332855	-5681.702946	27.254626	36.488006	1070.107009	43.705901	13.292173	-22.890918	
3.0900	30.557181	26.896530	39.692542	-65.218530	848.016912	-49.607521	12.975884	34.054174	28.731310	45.000000	-45.000000	991.374528	2772.114800	156.301444	5.467055	1798.434991	525.998119	17.942042	13.744673	-6.804046	-45.000000	-39.386093	45.000000	-45.000000	5504.200351	-5681.694375	27.362452	37.092697	1070.122511	43.581499	13.428006	-22.782319	
